<svg xmlns="http://www.w3.org/2000/svg" width="86.5" height="26.406" viewBox="0 0 86.5 26.406">
  <defs>
    <style>
      .cls-1 {
        fill-rule: evenodd;
      }
    </style>
  </defs>
  <path id="Skinn_" data-name="Skinn®" class="cls-1" d="M58.823,64.908c0,3.314,2.953,5.775,6.694,5.775,3.446,0,6.694-2.034,6.694-5.578,0-3.15-2.527-5.414-4.856-7.679-2-1.969-3.905-3.971-3.905-6.563,0-2.494,1.05-3.117,2.133-3.117,1.214,0,2.133.853,2.133,3.347,0,0.591-.033,1.247-0.066,1.739h4.4c0-3.15-2.724-5.546-6.268-5.546-3.281,0-6.464,1.87-6.464,5.25,0,3.413,2.461,5.677,4.791,7.876,2.067,1.969,4,3.9,4,6.6,0,2.527-1.247,3.216-2.33,3.216-1.247,0-2.33-.853-2.33-3.314,0-.656.033-1.444,0.066-2H58.823Zm20.466,5.447V63.726l1.444-1.838,4.332,8.466h4.693L83.62,58.279l4.233-5.316H87.2l-7.908,9.91V44.267h-4.43V70.355h4.43ZM94.625,50.338a2.445,2.445,0,0,0,2.461-2.494A2.478,2.478,0,1,0,94.625,50.338Zm2.2,20.017V52.963h-4.43V70.355h4.43Zm13.1,0h4.43v-12.4a5.05,5.05,0,0,0-5.185-5.316,4.942,4.942,0,0,0-4.693,3.019V52.963h-4.43V70.355h4.43V57.492c0-1.87,1.182-3.249,2.757-3.249s2.691,1.378,2.691,3.249V70.355Zm17.5,0h4.43v-12.4a5.05,5.05,0,0,0-5.185-5.316,4.942,4.942,0,0,0-4.693,3.019V52.963h-4.43V70.355h4.43V57.492c0-1.87,1.182-3.249,2.757-3.249s2.691,1.378,2.691,3.249V70.355Zm12.2-8.947a5.691,5.691,0,1,0-5.674-5.691A5.529,5.529,0,0,0,139.627,61.408Zm0-.207a5.483,5.483,0,1,1,5.484-5.483A5.315,5.315,0,0,1,139.627,61.2Zm-2.662-1.721h1.993v-3.7h0.271l1.61,3.7h2.136l-1.833-3.842a1.876,1.876,0,0,0,1.37-1.753,2.094,2.094,0,0,0-2.311-1.929h-3.236v7.524Zm2.359-7.316c0.654,0,1.132.749,1.132,1.721s-0.478,1.69-1.132,1.69h-0.366V52.163h0.366Z" transform="translate(-58.813 -44.281)"/>
</svg>
